<?xml version="1.0" encoding="UTF-8"?>
<svg width="91px" height="92px" viewBox="0 0 91 92" version="1.1" xmlns="http://www.w3.org/2000/svg" xmlns:xlink="http://www.w3.org/1999/xlink">
    <g id="Page-1" stroke="none" stroke-width="1" fill="none" fill-rule="evenodd">
        <g id="noun_verified_1983696" fill="#4C51BF" fill-rule="nonzero">
            <path d="M88.4,52 C86.9,48.3 86.9,44.2 88.4,40.6 L88.9,39.4 C92.1,31.8 88.4,23 80.8,19.8 L79.7,19.3 C76,17.8 73.1,14.9 71.6,11.2 L71.2,10.2 C67.9,2.6 59.2,-1 51.5,2.1 L50.5,2.5 C46.8,4 42.7,4 39,2.5 L38.1,2.1 C30.6,-1 21.8,2.7 18.6,10.3 L18.2,11.1 C16.7,14.8 13.8,17.7 10.1,19.2 L9.2,19.6 C1.7,22.8 -2,31.6 1.2,39.2 L1.6,40.1 C3.1,43.8 3.1,47.9 1.6,51.5 L1.2,52.6 C-2,60.2 1.6,69 9.3,72.1 L10.3,72.5 C14,74 16.9,76.9 18.4,80.6 L18.9,81.7 C22,89.4 30.8,93 38.4,89.9 L39.5,89.4 C43.2,87.9 47.3,87.9 51,89.4 L51.9,89.8 C59.5,93 68.3,89.3 71.5,81.7 L71.9,80.9 C73.4,77.2 76.3,74.3 80,72.8 L80.8,72.5 C88.5,69.3 92.1,60.6 88.9,52.9 L88.4,52 Z M40.8,65.5 L40.8,65.5 L21.3,49.1 L27.3,42 L39.7,52.5 L61.6,26.5 L68.7,32.5 L40.8,65.5 L40.8,65.5 Z" id="Shape"></path>
        </g>
    </g>
</svg>